<svg width="34" height="16" viewBox="0 0 34 16" fill="none" xmlns="http://www.w3.org/2000/svg">
<path d="M12.815 13.5469H9.68V11.6686H5.4945L4.2955 13.5469H0L0.259875 13.1962L4.76163 6.94275L9.01175 1.0275L10.9175 1.01925H12.815V13.5469ZM9.81612 5.18688L8.44662 7.19438L7.0785 9.20737L8.43838 9.2335C8.74775 9.2335 9.03513 9.24038 9.27025 9.24038C9.31563 9.24175 9.36925 9.24312 9.42288 9.24312C9.56863 9.24312 9.71162 9.23762 9.85325 9.22525L9.834 9.22662C9.8505 9.21012 9.85325 8.44837 9.84225 7.1875L9.81612 5.18688ZM16.4656 13.5469H13.8889V1.01925H16.555C16.8094 1.00687 17.1077 1 17.4089 1C18.2476 1 19.0726 1.05637 19.8811 1.165L19.7863 1.154C21.329 1.52112 22.5734 2.562 23.21 3.9425L23.2224 3.97413C23.6871 4.82388 23.9608 5.83588 23.9608 6.9125C23.9608 7.05963 23.9552 7.20538 23.9456 7.34975L23.947 7.3305C23.9525 7.4295 23.9566 7.54638 23.9566 7.66463C23.9566 8.28063 23.8618 8.87325 23.6844 9.43012L23.6954 9.38888C23.3145 10.944 22.3121 12.2145 20.9742 12.9446L20.9454 12.9584C19.8715 13.4822 19.3696 13.5469 16.4656 13.5469ZM16.8424 4.03325V10.4325L18.0331 10.3967C19.3999 10.3514 19.7354 10.2331 20.2799 9.60063C20.7364 9.0575 21.0141 8.34937 21.0141 7.578C21.0141 7.45837 21.0072 7.34013 20.9949 7.22325L20.9963 7.237C21.0114 7.12975 21.0196 7.006 21.0196 6.8795C21.0196 6.456 20.922 6.05588 20.7474 5.69975L20.7542 5.71487C20.1657 4.4485 19.668 4.15838 17.9534 4.07725L16.8396 4.03325H16.8424ZM30.0447 13.5386C29.9127 13.5386 29.8509 13.5263 29.8316 13.4974C29.8124 13.4685 29.8316 13.4396 29.8454 13.3956C30.5411 11.5806 30.9495 9.48237 30.9646 7.29062V7.28375C30.9412 5.08375 30.5329 2.9855 29.8041 1.04537L29.8454 1.17188C29.8261 1.12375 29.8234 1.09625 29.8371 1.07562C29.8688 1.02887 29.9939 1.01925 30.328 1.01925C30.7598 1.01925 30.8849 1.05225 30.9536 1.18975C31.2822 2.089 31.5655 3.16287 31.7525 4.26837L31.7676 4.37975C31.9147 5.25288 31.9986 6.258 31.9986 7.28238C31.9986 9.2335 31.6947 11.1118 31.1324 12.8759L31.1681 12.7452L30.9179 13.5056L30.3459 13.5331C30.2043 13.5359 30.1135 13.5386 30.0447 13.5386ZM24.2257 13.5386C24.1501 13.5386 24.0676 13.5386 23.9576 13.5304L23.3581 13.5029L23.6799 13.0202C24.4801 11.7992 25.0342 10.3486 25.2391 8.78662L25.2446 8.73438C25.2831 8.33563 25.3051 7.87362 25.3051 7.40475C25.3051 6.47525 25.2199 5.565 25.0549 4.68225L25.0686 4.773C24.7345 3.42 24.1873 2.232 23.4585 1.17875L23.4819 1.2145L23.3389 1.01788H24.6094L24.8514 1.39462C25.312 2.18937 25.6998 3.10787 25.9679 4.07587L25.9871 4.15975C26.2456 5.08925 26.3928 6.15762 26.3928 7.26037C26.3928 9.13862 25.9624 10.9165 25.1951 12.5005L25.2267 12.429C24.7537 13.3915 24.6768 13.5386 24.223 13.5386H24.2257ZM27.0088 13.5386C26.9813 13.5414 26.951 13.5441 26.9194 13.5441C26.83 13.5441 26.7434 13.5304 26.6623 13.5029L26.6677 13.5042C26.6677 13.4712 26.8534 13.0794 26.9359 12.913C27.1146 12.5555 27.2961 12.1196 27.4501 11.67L27.4735 11.593C27.8805 10.3252 28.1143 8.86637 28.1143 7.3525C28.1143 5.29413 27.6811 3.3375 26.9001 1.56787L26.9359 1.66C26.8547 1.49363 26.6677 1.10312 26.6677 1.06875C26.7447 1.04262 26.8328 1.0275 26.9235 1.0275C26.9538 1.0275 26.9826 1.02887 27.0115 1.03162H27.0074C27.0899 1.03162 27.1779 1.03162 27.2659 1.03987L27.8654 1.066L28.205 1.91162C28.8127 3.50525 29.1647 5.34912 29.1647 7.27412C29.1647 9.2885 28.7798 11.2121 28.0799 12.9776L28.117 12.8731L27.8695 13.496L27.27 13.5235C27.182 13.5235 27.0954 13.5304 27.0115 13.5304L27.0088 13.5386Z" fill="#BDBCBC"/>
</svg>
