<svg width="23" height="23" viewBox="0 0 23 23" fill="none" xmlns="http://www.w3.org/2000/svg">
<g clip-path="url(#clip0_20812_78)">
<path fill-rule="evenodd" clip-rule="evenodd" d="M12.4197 20.0258L12.4197 16.2694C12.4197 16.016 12.4712 15.7594 12.5764 15.5211C14.245 11.7413 16.706 9.88816 19.0669 9.46642C19.1247 9.4561 19.1716 9.42681 19.1977 9.39849C19.2094 9.3857 19.2137 9.37674 19.2148 9.37409L19.2152 9.37306L19.2152 3.30684C19.2152 3.30684 19.2131 3.30403 19.2107 3.30187C19.2013 3.29299 19.1875 3.28732 19.1714 3.28829C17.2379 3.40527 15.9838 3.19812 15.0225 2.87101C14.5496 2.71005 14.1668 2.52633 13.8448 2.36783C13.8166 2.35397 13.7892 2.34042 13.7623 2.32718C13.471 2.18351 13.2537 2.0764 13.0211 1.99394C12.8901 1.94751 12.495 1.88927 11.807 1.85779C11.1627 1.82832 10.3665 1.82506 9.51683 1.83899C7.81941 1.86682 5.95237 1.96244 4.75291 2.04216L4.72413 2.04407L4.6953 2.04407C4.56335 2.04407 4.48071 2.06076 4.43367 2.07568C4.38939 2.08971 4.37403 2.10281 4.37173 2.10477C4.36934 2.1068 4.36281 2.11244 4.35282 2.13165C4.34156 2.15332 4.32555 2.19337 4.31216 2.26008C4.24618 2.58876 4.31776 3.06659 4.41911 3.63062C4.53002 4.24788 4.21734 4.78468 3.80192 5.05998C3.0781 5.53967 3.05935 6.12053 3.12305 6.31667C3.24088 6.6795 3.2829 7.21796 2.97696 7.69798C2.67506 8.17165 2.68376 8.47506 2.72925 8.66194C2.78466 8.88958 2.93899 9.11461 3.15882 9.32982C3.6537 9.81432 3.7121 10.5542 3.42335 11.1067C3.30074 11.3414 3.30125 11.4939 3.31913 11.5904C3.33987 11.7022 3.40274 11.8304 3.52485 11.9672C3.64766 12.1049 3.80451 12.2213 3.94956 12.3011C4.0178 12.3386 4.0731 12.3624 4.10879 12.3751L9.01822 12.3751L9.01822 15.5842C9.01822 18.4041 9.66868 19.45 10.2037 19.8435C10.7538 20.248 11.5198 20.2274 12.4197 20.0258ZM9.16486 21.3346C7.90824 20.4105 7.2334 18.579 7.2334 15.5842L7.2334 14.2088L4.04415 14.2088C3.84968 14.2088 3.66835 14.1577 3.54319 14.1144C3.40137 14.0652 3.25316 13.9981 3.10692 13.9176C2.81711 13.7581 2.49062 13.5219 2.20905 13.2062C1.92676 12.8898 1.66419 12.4639 1.56585 11.9336C1.47802 11.46 1.53253 10.9624 1.74357 10.4658C1.45038 10.1405 1.13928 9.68831 0.997741 9.10682C0.825055 8.39738 0.934047 7.61877 1.4063 6.81958C1.11162 5.7923 1.50686 4.52654 2.61309 3.67698C2.53045 3.19113 2.44087 2.50367 2.56413 1.88966C2.64541 1.48479 2.83189 1.03462 3.23211 0.693491C3.62648 0.357338 4.12431 0.215668 4.66428 0.210471C5.88445 0.129794 7.76671 0.0337074 9.48835 0.00548071C10.3545 -0.00872133 11.1909 -0.00595179 11.8864 0.0258609C12.5382 0.0556767 13.1899 0.113975 13.6032 0.260452C13.9393 0.379583 14.2506 0.533502 14.5254 0.669357C14.556 0.684513 14.5862 0.699443 14.616 0.714078C14.9241 0.865751 15.223 1.00751 15.5837 1.13027C16.29 1.37061 17.3116 1.56388 19.0665 1.45772C20.0765 1.39661 21 2.20373 21 3.30624L21 9.37306C21 10.4155 20.1929 11.1265 19.3727 11.2731C17.7235 11.5676 15.6886 12.9145 14.2046 16.2724L14.2046 20.0353C14.2046 20.8566 13.6654 21.6206 12.8348 21.8096C11.8819 22.0265 10.4004 22.2432 9.16486 21.3346Z" fill="white"/>
</g>
<defs>
<clipPath id="clip0_20812_78">
<rect width="22.2222" height="22.2222" fill="white" transform="translate(22.2222 22.2222) rotate(-180)"/>
</clipPath>
</defs>
</svg>
