<svg width="48" height="48" viewBox="0 0 48 48" fill="none" xmlns="http://www.w3.org/2000/svg">
<path d="M20.306 17.7818V30H17.7227V20.2338H17.6511L14.8531 21.9878V19.6969L17.8778 17.7818H20.306ZM28.1685 30.2685C27.1424 30.2645 26.2594 30.0119 25.5196 29.5108C24.7838 29.0097 24.2171 28.2838 23.8193 27.3332C23.4256 26.3827 23.2307 25.2392 23.2347 23.9028C23.2347 22.5705 23.4316 21.4349 23.8253 20.4963C24.223 19.5577 24.7898 18.8438 25.5256 18.3545C26.2654 17.8614 27.1463 17.6148 28.1685 17.6148C29.1907 17.6148 30.0696 17.8614 30.8054 18.3545C31.5452 18.8477 32.114 19.5636 32.5117 20.5023C32.9094 21.4369 33.1063 22.5705 33.1023 23.9028C33.1023 25.2432 32.9034 26.3886 32.5057 27.3392C32.112 28.2898 31.5472 29.0156 30.8114 29.5168C30.0756 30.0179 29.1946 30.2685 28.1685 30.2685ZM28.1685 28.1267C28.8685 28.1267 29.4273 27.7747 29.8449 27.0707C30.2625 26.3668 30.4693 25.3108 30.4654 23.9028C30.4654 22.9761 30.3699 22.2045 30.179 21.5881C29.9921 20.9716 29.7256 20.5082 29.3796 20.198C29.0375 19.8878 28.6338 19.7327 28.1685 19.7327C27.4725 19.7327 26.9157 20.0807 26.498 20.7767C26.0804 21.4727 25.8696 22.5148 25.8657 23.9028C25.8657 24.8415 25.9591 25.625 26.1461 26.2534C26.337 26.8778 26.6054 27.3472 26.9515 27.6614C27.2975 27.9716 27.7032 28.1267 28.1685 28.1267Z" fill="white"/>
<path d="M44 24C44 35.0457 35.0457 44 24 44C12.9543 44 4 35.0457 4 24C4 12.9543 12.9543 4 24 4C28.2209 4 35 5.5 38 10" stroke="white" stroke-width="3"/>
<path d="M31.5 11H38.3927C38.452 11 38.5 10.952 38.5 10.8927V4" stroke="white" stroke-width="3"/>
<path d="M37 17H43.8927C43.952 17 44 16.952 44 16.8927V10" stroke="white" stroke-width="3"/>
</svg>
