<svg width="30" height="16" viewBox="0 0 30 16" fill="none" xmlns="http://www.w3.org/2000/svg">
<rect x="0.5" y="0.5" width="29" height="15" rx="1.5" stroke="#727373"/>
<path d="M7.05682 12V3.27273H8.11364V7.15909H12.767V3.27273H13.8239V12H12.767V8.09659H8.11364V12H7.05682ZM18.2728 12H15.5796V3.27273H18.3921C19.2387 3.27273 19.9632 3.44744 20.5654 3.79688C21.1677 4.14347 21.6293 4.64205 21.9504 5.29261C22.2714 5.94034 22.4319 6.71591 22.4319 7.61932C22.4319 8.52841 22.27 9.31108 21.9461 9.96733C21.6222 10.6207 21.1507 11.1236 20.5313 11.4759C19.912 11.8253 19.1592 12 18.2728 12ZM16.6364 11.0625H18.2046C18.9262 11.0625 19.5242 10.9233 19.9987 10.6449C20.4731 10.3665 20.8268 9.97017 21.0597 9.45597C21.2927 8.94176 21.4092 8.32955 21.4092 7.61932C21.4092 6.91477 21.2941 6.30824 21.064 5.79972C20.8339 5.28835 20.4901 4.89631 20.0328 4.62358C19.5754 4.34801 19.0058 4.21023 18.3239 4.21023H16.6364V11.0625Z" fill="#C3C2C2"/>
</svg>
