<svg width="48" height="48" viewBox="0 0 48 48" fill="none" xmlns="http://www.w3.org/2000/svg">
<path d="M8.5 18.8107L20.954 19.807C20.98 19.8091 21 19.8308 21 19.8568V25.481C21 25.681 21.1204 25.8626 21.305 25.9398C28.1568 28.8032 34.0637 28.8107 40.4499 28.8107C40.4775 28.8107 40.5 28.7883 40.5 28.7607V16.3607C40.5 16.3331 40.4776 16.3107 40.45 16.3107H28.05C28.0224 16.3107 28 16.2883 28 16.2607V9.38333C28 9.33946 27.9756 9.30091 27.9348 9.28479C24.5664 7.95414 16.0071 5.8381 8.08139 7.7905C8.0336 7.80227 8 7.84523 8 7.89446V41.3107" stroke="white" stroke-width="3"/>
</svg>
