<svg width="24" height="24" viewBox="0 0 24 24" fill="none" xmlns="http://www.w3.org/2000/svg">
<path fill-rule="evenodd" clip-rule="evenodd" d="M10.523 2.99949V6.80423C10.523 7.06095 10.4659 7.32086 10.3492 7.56216C8.49726 11.3906 5.76585 13.2676 3.14545 13.6948C3.08136 13.7052 3.02933 13.7349 3.00038 13.7636C2.98729 13.7765 2.98255 13.7856 2.98134 13.7883L2.98089 13.7893L2.98094 19.9336C2.98094 19.9336 2.98328 19.9364 2.98585 19.9386C2.99639 19.9476 3.01161 19.9534 3.0295 19.9524C5.17552 19.8339 6.5674 20.0437 7.63424 20.375C8.15919 20.5381 8.58401 20.7241 8.94139 20.8847C8.97266 20.8987 9.00315 20.9125 9.03294 20.9259C9.3563 21.0714 9.59738 21.1799 9.85561 21.2634C10.001 21.3104 10.4395 21.3694 11.2031 21.4013C11.9181 21.4311 12.8019 21.4344 13.7449 21.4203C15.6288 21.3921 17.701 21.2953 19.0323 21.2145L19.0642 21.2126H19.0962C19.2427 21.2126 19.3344 21.1957 19.3866 21.1806C19.4357 21.1664 19.4528 21.1531 19.4553 21.1511C19.458 21.1491 19.4652 21.1434 19.4763 21.1239C19.4888 21.102 19.5066 21.0614 19.5214 20.9938C19.5947 20.6609 19.5152 20.1769 19.4027 19.6056C19.2796 18.9804 19.6267 18.4367 20.0877 18.1579C20.8911 17.672 20.9119 17.0837 20.8412 16.885C20.7104 16.5175 20.6638 15.9722 21.0034 15.486C21.3384 15.0062 21.3288 14.6989 21.2783 14.5096C21.2168 14.279 21.0455 14.0511 20.8015 13.8331C20.2522 13.3424 20.1874 12.593 20.5079 12.0333C20.644 11.7957 20.6434 11.6412 20.6236 11.5435C20.6006 11.4302 20.5308 11.3004 20.3953 11.1618C20.259 11.0223 20.0849 10.9045 19.9239 10.8236C19.8481 10.7856 19.7868 10.7616 19.7472 10.7487H14.2983L14.2983 7.49827C14.2983 4.64212 13.5764 3.58275 12.9826 3.18424C12.372 2.77447 11.5219 2.79534 10.523 2.99949ZM14.1355 1.67392C15.5302 2.60992 16.2792 4.46493 16.2792 7.49827V8.89134L19.8189 8.89134C20.0347 8.89134 20.236 8.94313 20.3749 8.98704C20.5323 9.03679 20.6968 9.10482 20.8591 9.18632C21.1808 9.34784 21.5431 9.58713 21.8556 9.90684C22.1689 10.2274 22.4604 10.6587 22.5695 11.1958C22.667 11.6755 22.6065 12.1796 22.3723 12.6825C22.6977 13.012 23.0429 13.47 23.2 14.059C23.3917 14.7776 23.2707 15.5662 22.7466 16.3757C23.0736 17.4162 22.635 18.6982 21.4072 19.5587C21.4989 20.0508 21.5983 20.7471 21.4615 21.369C21.3713 21.7791 21.1644 22.235 20.7202 22.5806C20.2825 22.921 19.7299 23.0645 19.1306 23.0698C17.7764 23.1515 15.6873 23.2488 13.7765 23.2774C12.8152 23.2918 11.8869 23.289 11.115 23.2568C10.3916 23.2266 9.66821 23.1675 9.20955 23.0192C8.83653 22.8985 8.49101 22.7426 8.18605 22.605C8.15202 22.5897 8.1185 22.5745 8.08551 22.5597C7.7435 22.4061 7.41175 22.2625 7.01137 22.1382C6.22753 21.8947 5.09363 21.699 3.14595 21.8065C2.02493 21.8684 1 21.0509 1 19.9342L1 13.7893C1 12.7335 1.89578 12.0133 2.80613 11.8649C4.63649 11.5665 6.89496 10.2023 8.54211 6.80128V2.9899C8.54211 2.15808 9.14053 1.38419 10.0623 1.19277C11.1199 0.973147 12.7642 0.753596 14.1355 1.67392Z" fill="white"/>
</svg>
