<svg width="31" height="30" viewBox="0 0 31 30" fill="none" xmlns="http://www.w3.org/2000/svg">
<path d="M18 14.8C18 13.527 17.3679 12.3061 16.2426 11.4059C15.1174 10.5057 13.5913 10 12 10C10.4087 10 8.88258 10.5057 7.75736 11.4059C6.63214 12.3061 6 13.527 6 14.8C6 20.4 6 22 6 22H18C18 22 18 20.4 18 14.8Z" stroke="white" stroke-width="1.75" stroke-linecap="round" stroke-linejoin="round"/>
<path d="M3 22L21 22" stroke="white" stroke-width="2" stroke-linecap="square"/>
<path d="M15 24.0001C15 25.6569 13.6569 27.0001 12 27.0001C10.3431 27.0001 9 25.6569 9 24.0001C11.5 24 10.3431 24.0001 12 24.0001C13.6569 24.0001 12.5 24.0001 15 24.0001Z" fill="white"/>
<path d="M12 8V9" stroke="white" stroke-width="3" stroke-linecap="square"/>
<rect x="15" width="16" height="16" rx="8" fill="#AA251C"/>
<path d="M20.4659 9.80682V9.22727L23.0227 5.18182H23.4432V6.07955H23.1591L21.2273 9.13636V9.18182H24.6705V9.80682H20.4659ZM23.2045 11V9.63068V9.3608V5.18182H23.875V11H23.2045Z" fill="white"/>
</svg>
