<svg width="24" height="24" viewBox="0 0 24 24" fill="none" xmlns="http://www.w3.org/2000/svg">
<path d="M22.2573 21.3644L16.9361 15.8301C18.3042 14.2037 19.0539 12.1573 19.0539 10.0269C19.0539 5.04956 15.0043 1 10.0269 1C5.04956 1 1 5.04956 1 10.0269C1 15.0043 5.04956 19.0539 10.0269 19.0539C11.8955 19.0539 13.6762 18.4903 15.1986 17.4204L20.5602 22.9967C20.7843 23.2294 21.0857 23.3578 21.4087 23.3578C21.7145 23.3578 22.0045 23.2412 22.2247 23.0293C22.6925 22.5791 22.7074 21.8326 22.2573 21.3644ZM10.0269 3.35485C13.706 3.35485 16.699 6.34787 16.699 10.0269C16.699 13.706 13.706 16.699 10.0269 16.699C6.34787 16.699 3.35485 13.706 3.35485 10.0269C3.35485 6.34787 6.34787 3.35485 10.0269 3.35485Z" fill="white"/>
</svg>
