<svg width="20" height="20" viewBox="0 0 20 20" fill="none" xmlns="http://www.w3.org/2000/svg">
<path d="M11 6.72498C11.825 7.62498 12.98 10.1 11 12.8" stroke="#707275" stroke-width="1.35"/>
<path d="M13.25 4.47513C15.05 6.27513 17.075 10.7751 13.25 15.0501" stroke="#707275" stroke-width="1.35"/>
<path d="M15.5 1.99979C18.425 4.47479 20.9 11.2248 15.725 17.5248" stroke="#707275" stroke-width="1.35"/>
<path d="M8.72364 16.0596V3.02012C8.72364 2.97664 8.67065 2.95532 8.64054 2.9867L4.6347 7.16027C4.6256 7.16975 4.61302 7.17512 4.59988 7.17512L1.04827 7.17512C1.02161 7.17512 1 7.19673 1 7.22339V12.0768C1 12.1035 1.02161 12.1251 1.04827 12.1251H4.60064C4.61334 12.1251 4.62552 12.1301 4.63455 12.139L8.64145 16.094C8.67195 16.1241 8.72364 16.1025 8.72364 16.0596Z" stroke="#707275" stroke-width="1.35"/>
</svg>
