<svg width="20" height="21" viewBox="0 0 20 21" fill="none" xmlns="http://www.w3.org/2000/svg">
<g clip-path="url(#clip0_20812_75)">
<path fill-rule="evenodd" clip-rule="evenodd" d="M8.99905 3.60249V6.22885C8.99905 6.40606 8.96307 6.58547 8.88954 6.75204C7.72291 9.39478 6.00225 10.6904 4.35153 10.9853C4.31116 10.9925 4.27837 11.013 4.26014 11.0328C4.2519 11.0417 4.24891 11.048 4.24815 11.0499L4.24786 11.0506L4.24789 15.2919C4.24789 15.2919 4.24937 15.2938 4.25099 15.2954C4.25763 15.3016 4.26722 15.3055 4.27849 15.3048C5.63037 15.2231 6.50719 15.3679 7.17924 15.5966C7.50994 15.7091 7.77755 15.8376 8.00269 15.9484C8.02238 15.9581 8.04159 15.9676 8.06035 15.9768C8.26406 16.0773 8.41593 16.1522 8.57859 16.2098C8.67016 16.2423 8.94642 16.283 9.42744 16.305C9.8779 16.3256 10.4346 16.3279 11.0287 16.3181C12.2154 16.2987 13.5208 16.2318 14.3594 16.1761L14.3796 16.1748H14.3997C14.492 16.1748 14.5498 16.1631 14.5826 16.1527C14.6136 16.1429 14.6243 16.1337 14.6259 16.1323C14.6276 16.1309 14.6322 16.127 14.6392 16.1135C14.647 16.0984 14.6582 16.0704 14.6676 16.0237C14.7137 15.7939 14.6637 15.4599 14.5928 15.0655C14.5153 14.6339 14.7339 14.2586 15.0243 14.0661C15.5304 13.7308 15.5435 13.3246 15.499 13.1875C15.4166 12.9338 15.3872 12.5574 15.6011 12.2217C15.8122 11.8906 15.8061 11.6784 15.7743 11.5478C15.7356 11.3886 15.6277 11.2313 15.474 11.0808C15.128 10.7421 15.0871 10.2248 15.289 9.83844C15.3747 9.6744 15.3744 9.56772 15.3619 9.50029C15.3474 9.4221 15.3034 9.3325 15.2181 9.2368C15.1322 9.14055 15.0225 9.05919 14.9211 9.00339C14.8734 8.97714 14.8347 8.96055 14.8098 8.95165H11.3773V6.70794C11.3773 4.73638 10.9225 4.00511 10.5484 3.73002C10.1638 3.44716 9.62826 3.46156 8.99905 3.60249ZM11.2747 2.68747C12.1533 3.33357 12.6252 4.61406 12.6252 6.70794V7.66956H14.855C14.9909 7.66956 15.1177 7.70531 15.2052 7.73561C15.3044 7.76995 15.408 7.81692 15.5103 7.87318C15.7129 7.98467 15.9412 8.14985 16.138 8.37054C16.3354 8.59179 16.519 8.88955 16.5877 9.26031C16.6491 9.59143 16.611 9.93937 16.4635 10.2865C16.6685 10.514 16.886 10.8302 16.9849 11.2367C17.1057 11.7327 17.0295 12.2771 16.6993 12.8359C16.9053 13.5541 16.629 14.4391 15.8555 15.0331C15.9133 15.3728 15.9759 15.8534 15.8898 16.2827C15.8329 16.5658 15.7026 16.8805 15.4227 17.119C15.147 17.3541 14.7989 17.4531 14.4214 17.4568C13.5683 17.5132 12.2523 17.5803 11.0486 17.6001C10.443 17.61 9.85819 17.6081 9.37193 17.5858C8.91622 17.565 8.46054 17.5242 8.17161 17.4218C7.93663 17.3385 7.71897 17.2309 7.52685 17.1359C7.50542 17.1253 7.48431 17.1149 7.46352 17.1047C7.24807 16.9986 7.03909 16.8995 6.78687 16.8137C6.29309 16.6456 5.57879 16.5105 4.35184 16.5847C3.64565 16.6274 3 16.0631 3 15.2923V11.0506C3 10.3217 3.56429 9.8246 4.13777 9.72216C5.29081 9.51619 6.71353 8.57449 7.75116 6.22681V3.59587C7.75116 3.02167 8.12813 2.48746 8.70883 2.35533C9.37506 2.20373 10.4109 2.05218 11.2747 2.68747Z" fill="white"/>
</g>
<defs>
<clipPath id="clip0_20812_75">
<rect width="20" height="20" fill="white" transform="translate(0 0.222229)"/>
</clipPath>
</defs>
</svg>
