<svg width="48" height="48" viewBox="0 0 48 48" fill="none" xmlns="http://www.w3.org/2000/svg">
<path d="M27.582 17.5C29.4154 19.5 31.982 25 27.582 31" stroke="white" stroke-width="3"/>
<path d="M32.582 12.5C36.582 16.5 41.082 26.5 32.582 36" stroke="white" stroke-width="3"/>
<path d="M37.582 7C44.082 12.5 49.582 27.5 38.082 41.5" stroke="white" stroke-width="3"/>
<path d="M21.1636 38.2434V9.26668C21.1636 9.17005 21.0459 9.12268 20.979 9.1924L12.0771 18.467C12.0569 18.4881 12.0289 18.5 11.9997 18.5L4.10727 18.5C4.04803 18.5 4 18.548 4 18.6073V29.3927C4 29.452 4.04803 29.5 4.10727 29.5L12.0014 29.5C12.0296 29.5 12.0567 29.5111 12.0768 29.5309L20.981 38.3197C21.0488 38.3866 21.1636 38.3386 21.1636 38.2434Z" stroke="white" stroke-width="3"/>
</svg>
