<svg width="48" height="48" viewBox="0 0 48 48" fill="none" xmlns="http://www.w3.org/2000/svg">
<path d="M42.5 8.1V34.15C42.5 34.2052 42.4552 34.25 42.4 34.25H33.85C33.7948 34.25 33.75 34.2948 33.75 34.35V40.3382C33.75 40.4125 33.6718 40.4609 33.6053 40.4276L21.2711 34.2606C21.2572 34.2536 21.2419 34.25 21.2264 34.25H5.1C5.04477 34.25 5 34.2052 5 34.15V8.1C5 8.04477 5.04477 8 5.1 8H42.4C42.4552 8 42.5 8.04477 42.5 8.1Z" stroke="white" stroke-width="3"/>
<path d="M21.25 18H36.25M17.5 18H11.25" stroke="white" stroke-width="3"/>
<path d="M11.25 24.25H26.25" stroke="white" stroke-width="3"/>
<path d="M28.75 24.25H36.25" stroke="white" stroke-width="3"/>
</svg>
